<svg xmlns="http://www.w3.org/2000/svg" width="162.814" height="18" viewBox="0 0 162.814 18"><defs><style>.a{fill:#fff;}</style></defs><path class="a" d="M88.8,5.4c0,2.776,1.832,4.137,4.23,5.054,1.268.494,2.467.87,2.467,2.539a1.759,1.759,0,0,1-1.739,1.784,2.561,2.561,0,0,1-2.3-1.525L88.78,14.4a5.109,5.109,0,0,0,4.912,3.713H93.9a5.026,5.026,0,0,0,4.959-5.121,4.8,4.8,0,0,0-2.514-4.656A21.933,21.933,0,0,0,94,7.232c-.987-.423-1.833-1.127-1.833-1.974a1.7,1.7,0,0,1,1.575-1.717,1.629,1.629,0,0,1,1.551.987l3.032-1.455A4.564,4.564,0,0,0,93.95.157,4.872,4.872,0,0,0,88.8,5.4Z" transform="translate(-62.327 -0.11)"/><path class="a" d="M143.529.628,136.5,18.255h3.619l1.315-3.174a.187.187,0,0,1,.189-.116h6.369a.184.184,0,0,1,.188.116l1.387,3.174h3.6L146.091.628h-2.562Zm-.775,11.14c0-.047,0-.069.024-.1l1.973-4.956.071-.094.047.047c0,.022,0,.022.024.047l1.951,4.956a.091.091,0,0,1,.024.071c0,.072-.024.094-.094.094h-3.924c-.071,0-.1-.022-.1-.069Z" transform="translate(-95.831 -0.441)"/><path class="a" d="M206.392.628V18.255h3.36V11.228a.126.126,0,0,1,.142-.142h6.2V7.726h-6.2a.126.126,0,0,1-.142-.142V4.13a.125.125,0,0,1,.142-.139h6.2V.628h-9.706Z" transform="translate(-144.896 -0.441)"/><path class="a" d="M255.3.628V18.255h9.682V14.894H258.8a.126.126,0,0,1-.142-.144V11.228a.125.125,0,0,1,.142-.142h6.18V7.726H258.8a.125.125,0,0,1-.142-.142V4.13a.124.124,0,0,1,.142-.139h6.18V.628H255.3Z" transform="translate(-179.232 -0.441)"/><path class="a" d="M305.435,9a8.985,8.985,0,0,0,9,9,9.078,9.078,0,0,0,7.309-3.126V8.223h-7.685v3.245h4.183c.071,0,.094.024.094.07v2.022a5.553,5.553,0,0,1-3.642,1.1A5.735,5.735,0,0,1,308.8,9a5.657,5.657,0,0,1,5.64-5.642,7.492,7.492,0,0,1,4.136,1.5l2.068-2.679A10.092,10.092,0,0,0,314.435,0,8.986,8.986,0,0,0,305.435,9Z" transform="translate(-214.428)"/><path class="a" d="M372.818,9a9,9,0,1,0,9-9A8.985,8.985,0,0,0,372.818,9Zm3.36,0a5.64,5.64,0,1,1,5.64,5.638A5.657,5.657,0,0,1,376.178,9Z" transform="translate(-261.734 0)"/><path class="a" d="M449.965.553V18.2h9.26V14.841h-5.617a.249.249,0,0,1-.282-.281V.553h-3.36Z" transform="translate(-315.894 -0.388)"/><path class="a" d="M497.3.628V18.255h5.781a8.871,8.871,0,0,0,8.859-8.812A8.872,8.872,0,0,0,503.08.628H497.3Zm3.36,14.122V4.13a.124.124,0,0,1,.142-.139h2.42a5.143,5.143,0,0,1,5.358,5.452,5.256,5.256,0,0,1-5.5,5.451H500.8A.125.125,0,0,1,500.659,14.75Z" transform="translate(-349.124 -0.441)"/><path class="a" d="M21.464,27.279a5.2,5.2,0,0,1,0,1.736h1.288a7.175,7.175,0,0,1-11.7,4.647l-1.4,1.032a8.857,8.857,0,0,0,14.841-6.53q0-.448-.044-.884h-.608v0Z" transform="translate(-6.77 -19.149)"/><path class="a" d="M0,9.383q0,.416.038.822H3.5l-.011.029h.2A5.24,5.24,0,0,0,14.026,8.5H12.692v0H8.322v1.738h3.891A3.458,3.458,0,1,1,10.862,6.6l1.493-1.138A5.239,5.239,0,0,0,3.688,8.5H1.734A7.175,7.175,0,0,1,13.913,4.27l1.334-1.017A8.855,8.855,0,0,0,0,9.383Z" transform="translate(0 -0.369)"/></svg>